<svg xmlns="http://www.w3.org/2000/svg" xmlns:xlink="http://www.w3.org/1999/xlink" width="205.041" height="34.423" viewBox="0 0 205.041 34.423">
  <defs>
    <linearGradient id="linear-gradient" y1="0.5" x2="1" y2="0.5" gradientUnits="objectBoundingBox">
      <stop offset="0" stop-color="#1aa2ff"/>
      <stop offset="1" stop-color="#ca1dff"/>
    </linearGradient>
  </defs>
  <path id="DisTedavim_Logo" data-name="DisTedavim Logo" d="M32.819,31.887l3.775-4.521L39.613,29.2l-4.529,4.091h0Zm1.429-5.127A8.563,8.563,0,0,1,31.955,26a14.714,14.714,0,0,1-2.311-1.435l2.837-3.694a5.589,5.589,0,0,0,4.063,1.639c1.661,0,2.5-.488,2.5-1.45,0-.5-.465-.881-1.384-1.122-.644-.147-1.693-.408-3.117-.776A6.219,6.219,0,0,1,31.623,17.5a5.035,5.035,0,0,1-1.174-3.659,5.293,5.293,0,0,1,.964-3.21A5.8,5.8,0,0,1,33.952,8.7a9.369,9.369,0,0,1,3.4-.64h.081a8.51,8.51,0,0,1,2.172.293,10.7,10.7,0,0,1,2.135.9,9.912,9.912,0,0,1,1.821,1.277l-3.083,3.02a4.865,4.865,0,0,0-2.941-1c-1.267,0-1.91.355-1.91,1.053,0,.63.478,1.078,1.418,1.329,1.038.275,2.092.538,3.135.778a6.093,6.093,0,0,1,2.89,1.588,5.079,5.079,0,0,1,1.174,3.694,5.3,5.3,0,0,1-1.016,3.245,6.069,6.069,0,0,1-2.717,2.053A9.106,9.106,0,0,1,37,27h-.126A14.4,14.4,0,0,1,34.249,26.76ZM10.281,27h-.044a10.79,10.79,0,0,1-3.845-.707,10.086,10.086,0,0,1-3.309-1.985A9.6,9.6,0,0,1,.806,21.271a9.062,9.062,0,0,1,.017-7.508,9.31,9.31,0,0,1,2.26-3.02A10.293,10.293,0,0,1,6.392,8.758a11.507,11.507,0,0,1,7.759,0l.4.174.4.172V1.356h5.585V17.629a8.575,8.575,0,0,1-1.418,4.747,9.776,9.776,0,0,1-3.785,3.383A10.846,10.846,0,0,1,10.3,27ZM7.969,13.677A4.779,4.779,0,0,0,6.234,15.3a4,4,0,0,0-.649,2.209,4.245,4.245,0,0,0,1.4,3.176,4.722,4.722,0,0,0,6.568,0,4.247,4.247,0,0,0,1.4-3.176,3.994,3.994,0,0,0-.649-2.209,4.787,4.787,0,0,0-1.734-1.625,4.608,4.608,0,0,0-2.294-.6h0A4.7,4.7,0,0,0,7.969,13.677Zm178.3,9.959a10.094,10.094,0,0,1-3.041-7.237A10.385,10.385,0,0,1,204,16.4a10.1,10.1,0,0,1-3.042,7.237,10.493,10.493,0,0,1-14.685,0Zm1.122-8.855a2.171,2.171,0,0,0,.108,4.34l.11,0c.05,0,.105-.007.162-.014a2.12,2.12,0,0,0,2.037-2.037l-1.4.12a.835.835,0,0,1-.754.662l-.07,0a.865.865,0,0,1-.862-.785q0-.028,0-.057a.823.823,0,0,1,.148-.627.855.855,0,0,1,.556-.34l.072-.009c.03,0,.06,0,.091,0a.841.841,0,0,1,.761.482l1.383-.12a2.11,2.11,0,0,0-2.055-1.631A2.215,2.215,0,0,0,187.4,14.782Zm4.658-.409a2.175,2.175,0,0,0,.283,4.333c.055,0,.112,0,.175-.006a1.435,1.435,0,0,0,.148-.017,2.185,2.185,0,0,0,1.885-2.453,2.207,2.207,0,0,0-2.49-1.856Zm3.2-.139.361,4.063,1.42-.123-.2-2.227c-.044-.5.143-.792.526-.825l.049,0c.266,0,.425.2.461.591l.21,2.373,1.389-.12-.2-2.227a.865.865,0,0,1,.14-.65.535.535,0,0,1,.381-.176l.051,0c.271,0,.427.2.463.591l.211,2.372,1.421-.122-.227-2.547a1.493,1.493,0,0,0-1.472-1.512h-.034c-.039,0-.076,0-.11,0l-.007,0a1.61,1.61,0,0,0-1.211.707,1.4,1.4,0,0,0-1.083-.5,1.49,1.49,0,0,0-.156.008,1.588,1.588,0,0,0-1.151.662l-.241-.419ZM22.664,26.465V8.791l5.586-.017V26.465Zm112.292-.19L125.851,7.93l5.693-.034,3.484,7.836L138.46,7.9H144.4l-9.438,18.38Zm-80.419-.95A5.446,5.446,0,0,1,52,22.927a8.522,8.522,0,0,1-.86-4.056V12.588h-3.7l1.262-4.73h2.434V.475h5.589V7.859h3.711L59.2,12.588H56.728v5.85c0,1.559,1,2.347,2.975,2.347a3.768,3.768,0,0,0,1.471-.224v0L59.563,26.05a5.522,5.522,0,0,1-.854.069h0c-.105,0-.211.005-.317.005A9.714,9.714,0,0,1,54.537,25.325Zm39.358.794h-.037a10.849,10.849,0,0,1-3.852-.707A10.085,10.085,0,0,1,86.7,23.427a9.612,9.612,0,0,1-2.278-3.038,9.062,9.062,0,0,1,.019-7.508A9.273,9.273,0,0,1,86.7,9.861a10.273,10.273,0,0,1,3.308-1.985,11.521,11.521,0,0,1,7.76,0l.4.174.4.172V.475h5.587V16.749a8.57,8.57,0,0,1-1.42,4.746,9.747,9.747,0,0,1-3.785,3.383,10.861,10.861,0,0,1-5.044,1.241ZM91.584,12.8a4.8,4.8,0,0,0-1.733,1.625A3.983,3.983,0,0,0,89.2,16.63a4.243,4.243,0,0,0,1.4,3.176,4.721,4.721,0,0,0,6.567,0,4.251,4.251,0,0,0,1.4-3.176,4.006,4.006,0,0,0-.651-2.209A4.772,4.772,0,0,0,96.191,12.8a4.611,4.611,0,0,0-2.3-.6h0A4.694,4.694,0,0,0,91.584,12.8ZM72.352,26.069a10.013,10.013,0,0,1-4.808-1.227,9.52,9.52,0,0,1-3.625-3.4,9.257,9.257,0,0,1-.582-8.578,9.353,9.353,0,0,1,2.171-3,9.7,9.7,0,0,1,3.152-1.984,10.419,10.419,0,0,1,3.731-.69H72.4a10.262,10.262,0,0,1,3.706.69,9.78,9.78,0,0,1,3.17,1.967,9.138,9.138,0,0,1,2.96,6.749v.155a1.355,1.355,0,0,1-.017.191l-.037.294-2.17.034H67.96a4.518,4.518,0,0,0,4.431,3.814,4.352,4.352,0,0,0,3.151-1.312l.089-.1.087-.1,3.009,4.247a10.525,10.525,0,0,1-2.627,1.57,10.272,10.272,0,0,1-3.7.691ZM70.191,12.761a5.222,5.222,0,0,0-1.227,1.07h6.865a5.182,5.182,0,0,0-1.226-1.07,4.421,4.421,0,0,0-2.209-.585l0,0h-.005A4.42,4.42,0,0,0,70.191,12.761Zm45.6,13.306h-.022a10.955,10.955,0,0,1-5.039-1.226,9.93,9.93,0,0,1-3.785-3.383,9.014,9.014,0,0,1-.6-8.608,9.419,9.419,0,0,1,2.259-3,9.93,9.93,0,0,1,3.293-1.95,10.976,10.976,0,0,1,3.888-.707,11.359,11.359,0,0,1,3.888.69,9.9,9.9,0,0,1,3.292,1.967,9.487,9.487,0,0,1,2.276,3,8.748,8.748,0,0,1,.824,3.763l-.018,8.99-5.55-.051v-.517c-.389.168-.653.272-.824.327a10.868,10.868,0,0,1-3.849.706ZM113.5,12.761a4.779,4.779,0,0,0-1.733,1.626,4.082,4.082,0,0,0-.649,2.226,4.229,4.229,0,0,0,1.4,3.156,4.769,4.769,0,0,0,6.567,0,4.225,4.225,0,0,0,1.4-3.156,4.075,4.075,0,0,0-.647-2.226,4.765,4.765,0,0,0-4.048-2.211v0A4.776,4.776,0,0,0,113.5,12.761ZM163.743,25.62V14.7c-.1-1.615-.807-2.456-2.12-2.5h-.316c-1.417.046-2.135,1.028-2.135,2.917V25.566h-5.6V15.107A7.906,7.906,0,0,1,155.5,9.369a8.483,8.483,0,0,1,5.807-2.187h.315a9.622,9.622,0,0,1,4.94,1.45,9.484,9.484,0,0,1,4.92-1.45h.428a8.477,8.477,0,0,1,5.693,2.188,7.906,7.906,0,0,1,1.935,5.738V25.616h-5.6V15.106c0-1.887-.719-2.868-2.135-2.917h-.316c-1.313.047-2.026.89-2.12,2.5V25.616l0,0Zm-17.761-.035V7.91l5.586-.016V25.585Zm45.535-8.952a.916.916,0,0,1,.8-1.016.862.862,0,0,1,.113-.007.925.925,0,0,1,.92.8l0,.032a.848.848,0,0,1-.164.639.869.869,0,0,1-.574.337c-.023,0-.047.005-.071.007a.975.975,0,0,1-.114.007A.919.919,0,0,1,191.517,16.633ZM25.359,6.669l0,0A2.83,2.83,0,0,1,23.9,6.285a2.937,2.937,0,0,1-1.049-1.051,2.868,2.868,0,0,1-.4-1.468,2.836,2.836,0,0,1,.388-1.45,3.121,3.121,0,0,1,1.068-1.052A2.85,2.85,0,0,1,25.334.881h.028a2.937,2.937,0,0,1,1.471.382,2.988,2.988,0,0,1,1.051,1.052,2.958,2.958,0,0,1,0,2.918,3,3,0,0,1-1.051,1.035,2.826,2.826,0,0,1-1.449.4Zm123.318-.88,0,0a2.829,2.829,0,0,1-1.456-.382,2.956,2.956,0,0,1-1.05-1.052,2.867,2.867,0,0,1-.4-1.467,2.818,2.818,0,0,1,.388-1.45A3.137,3.137,0,0,1,147.226.383,2.849,2.849,0,0,1,148.652,0h.029a2.929,2.929,0,0,1,1.471.383A2.98,2.98,0,0,1,151.2,1.435a2.827,2.827,0,0,1,.388,1.45,2.787,2.787,0,0,1-.388,1.467,3,3,0,0,1-1.051,1.037,2.833,2.833,0,0,1-1.455.4Z" transform="translate(0.54 0.5)" stroke="rgba(0,0,0,0)" stroke-miterlimit="10" stroke-width="1" fill="url(#linear-gradient)"/>
</svg>
