<svg xmlns="http://www.w3.org/2000/svg" width="12.005" height="12" viewBox="0 0 12.005 12">
  <g id="calendar" transform="translate(0 -0.114)">
    <path id="Path_17968" data-name="Path 17968" d="M9.688,1.036H9.24V.583a.469.469,0,0,0-.937,0v.453H3.7V.583a.469.469,0,0,0-.938,0v.453H2.318A2.32,2.32,0,0,0,0,3.354V9.8a2.32,2.32,0,0,0,2.318,2.318h7.37A2.32,2.32,0,0,0,12.005,9.8V3.354A2.32,2.32,0,0,0,9.688,1.036Zm-7.37.938h.448v.914a.469.469,0,0,0,.938,0V1.973H8.3v.914a.469.469,0,0,0,.938,0V1.973h.448a1.382,1.382,0,0,1,1.38,1.38V3.8H.938V3.354a1.382,1.382,0,0,1,1.38-1.38Zm7.37,9.2H2.318A1.382,1.382,0,0,1,.938,9.8V4.739h10.13V9.8a1.382,1.382,0,0,1-1.38,1.38ZM4.164,6.583a.469.469,0,0,1-.469.469H2.773a.469.469,0,1,1,0-.937H3.7A.469.469,0,0,1,4.164,6.583Zm5.537,0a.469.469,0,0,1-.469.469H8.31a.469.469,0,0,1,0-.937h.922A.469.469,0,0,1,9.7,6.583Zm-2.771,0a.469.469,0,0,1-.469.469H5.539a.469.469,0,0,1,0-.937h.922A.469.469,0,0,1,6.93,6.583ZM4.164,9.348a.469.469,0,0,1-.469.469H2.773a.469.469,0,0,1,0-.937H3.7A.469.469,0,0,1,4.164,9.348Zm5.537,0a.469.469,0,0,1-.469.469H8.31a.469.469,0,1,1,0-.937h.922A.469.469,0,0,1,9.7,9.348Zm-2.771,0a.469.469,0,0,1-.469.469H5.539a.469.469,0,0,1,0-.937h.922A.469.469,0,0,1,6.93,9.348Z" fill="#a4aebb"/>
  </g>
</svg>
