<?xml version="1.0" encoding="utf-8"?>
<!-- Generator: Adobe Illustrator 25.4.1, SVG Export Plug-In . SVG Version: 6.00 Build 0)  -->
<svg version="1.1" id="Layer_1" xmlns="http://www.w3.org/2000/svg" xmlns:xlink="http://www.w3.org/1999/xlink" x="0px" y="0px"
	 viewBox="0 0 26.5 24" style="enable-background:new 0 0 26.5 24;" xml:space="preserve">
<style type="text/css">
	.st0{fill:url(#Path_10_00000160190612646568585560000008649262765027390399_);}
	.st1{fill:url(#Path_11_00000115476967046877585940000011590812026419352975_);}
	.st2{fill:url(#Path_12_00000070078855040161616400000005736211935140351399_);}
	.st3{fill:url(#Path_13_00000158016744230798368040000015086306029544526510_);}
	.st4{fill:url(#Path_14_00000176722278781410590110000011438414589995040668_);}
</style>
<g id="Sepet" transform="translate(-2 -3.345)">
	<g id="Group_7" transform="translate(2 3.345)">
		
			<linearGradient id="Path_10_00000068645274934188089860000005656263922491062204_" gradientUnits="userSpaceOnUse" x1="-2.000093e-03" y1="9.4475" x2="26.5494" y2="9.4475">
			<stop  offset="0" style="stop-color:#1E9EFC"/>
			<stop  offset="1" style="stop-color:#C926FC"/>
		</linearGradient>
		<path id="Path_10" style="fill:url(#Path_10_00000068645274934188089860000005656263922491062204_);" d="M0.9,1.9h1.8l2.9,11.7
			c-1.4,0.2-2.5,1.5-2.3,3c0.2,1.3,1.3,2.3,2.6,2.3h17.9c0.5,0,1-0.4,1-0.9c0-0.5-0.4-1-1-1l0,0H6c-0.4,0-0.7-0.4-0.7-0.8
			c0-0.4,0.3-0.7,0.7-0.7h16.2c0.4,0,0.8-0.3,0.9-0.6l3.4-10.2c0.2-0.5-0.1-1-0.6-1.2c-0.1,0-0.2,0-0.3,0h-17
			c-0.5,0-0.9,0.4-0.9,0.9s0.4,0.9,0.9,0.9h15.7l-2.8,8.3H7.6L4.4,0.7C4.3,0.3,3.9,0,3.5,0H0.9C0.4,0,0,0.4,0,1S0.4,1.9,0.9,1.9
			L0.9,1.9z"/>
		
			<linearGradient id="Path_11_00000139993995528429720440000012647829756220261539_" gradientUnits="userSpaceOnUse" x1="0.1687" y1="21.55" x2="26.5413" y2="21.55">
			<stop  offset="0" style="stop-color:#1E9EFC"/>
			<stop  offset="1" style="stop-color:#C926FC"/>
		</linearGradient>
		<path id="Path_11" style="fill:url(#Path_11_00000139993995528429720440000012647829756220261539_);" d="M17.7,21.5
			c0,1.4,1.1,2.5,2.4,2.5c1.4,0,2.5-1.1,2.5-2.4c0-1.4-1.1-2.5-2.4-2.5c0,0,0,0,0,0C18.8,19.1,17.7,20.2,17.7,21.5z M20.7,21.5
			c0,0.3-0.2,0.6-0.5,0.6s-0.6-0.2-0.6-0.5c0,0,0,0,0,0c0-0.3,0.3-0.5,0.6-0.5C20.5,21,20.7,21.3,20.7,21.5z"/>
		
			<linearGradient id="Path_12_00000063619630419641954310000006303499242893867441_" gradientUnits="userSpaceOnUse" x1="0.1561" y1="21.55" x2="26.4906" y2="21.55">
			<stop  offset="0" style="stop-color:#1E9EFC"/>
			<stop  offset="1" style="stop-color:#C926FC"/>
		</linearGradient>
		<path id="Path_12" style="fill:url(#Path_12_00000063619630419641954310000006303499242893867441_);" d="M5.7,21.5
			c0,1.4,1.1,2.5,2.4,2.5s2.5-1.1,2.5-2.4s-1.1-2.5-2.4-2.5c0,0,0,0,0,0C6.8,19.1,5.7,20.2,5.7,21.5z M8.7,21.5
			c0,0.3-0.3,0.6-0.6,0.6c-0.3,0-0.6-0.3-0.6-0.6c0-0.3,0.2-0.5,0.6-0.5C8.4,21,8.7,21.2,8.7,21.5z"/>
		
			<linearGradient id="Path_13_00000101793125106109219130000014820659987806222520_" gradientUnits="userSpaceOnUse" x1="0.281" y1="11.146" x2="26.576" y2="11.146">
			<stop  offset="0" style="stop-color:#1E9EFC"/>
			<stop  offset="1" style="stop-color:#C926FC"/>
		</linearGradient>
		<path id="Path_13" style="fill:url(#Path_13_00000101793125106109219130000014820659987806222520_);" d="M12.8,12.1h4.2
			c0.5,0,1-0.4,1-0.9s-0.4-0.9-1-0.9h-4.2c-0.5,0-0.9,0.4-0.9,0.9S12.3,12.1,12.8,12.1L12.8,12.1z"/>
		
			<linearGradient id="Path_14_00000073697870177884501960000005578447824083853242_" gradientUnits="userSpaceOnUse" x1="0.1533" y1="7.746" x2="26.6171" y2="7.746">
			<stop  offset="0" style="stop-color:#1E9EFC"/>
			<stop  offset="1" style="stop-color:#C926FC"/>
		</linearGradient>
		<path id="Path_14" style="fill:url(#Path_14_00000073697870177884501960000005578447824083853242_);" d="M12.8,8.7h4.2
			c0.5,0,1-0.4,1-0.9s-0.4-0.9-1-0.9h-4.2c-0.5,0-0.9,0.4-0.9,0.9S12.3,8.7,12.8,8.7L12.8,8.7z"/>
	</g>
</g>
</svg>
