<?xml version="1.0" encoding="utf-8"?>
<!-- Generator: Adobe Illustrator 25.4.1, SVG Export Plug-In . SVG Version: 6.00 Build 0)  -->
<svg version="1.1" id="Layer_1" xmlns="http://www.w3.org/2000/svg" xmlns:xlink="http://www.w3.org/1999/xlink" x="0px" y="0px"
	 viewBox="0 0 18 18" style="enable-background:new 0 0 18 18;" xml:space="preserve">
<style type="text/css">
	.st0{fill:url(#circle2017_00000165953751840223938710000012862317730942651811_);}
</style>
<g id="Search_icon" transform="translate(-0.514 -291.161)">
	
		<linearGradient id="circle2017_00000105406930091375649270000008465083730554921090_" gradientUnits="userSpaceOnUse" x1="0.4898" y1="300.1784" x2="18.5428" y2="300.1784">
		<stop  offset="0" style="stop-color:#1E9EFC"/>
		<stop  offset="1" style="stop-color:#C926FC"/>
	</linearGradient>
	<path id="circle2017" style="fill:url(#circle2017_00000105406930091375649270000008465083730554921090_);" d="M8.6,291.2
		c-4.5,0-8.1,3.6-8.1,8.1c0,4.5,3.6,8.1,8.1,8.1c1.8,0,3.6-0.6,5.1-1.8l3.4,3.4c0.3,0.4,0.9,0.4,1.3,0.1c0.4-0.3,0.4-0.9,0.1-1.3
		c0,0,0,0-0.1-0.1l-3.4-3.4c2.8-3.5,2.2-8.5-1.3-11.3C12.2,291.8,10.4,291.2,8.6,291.2L8.6,291.2z M8.6,293c3.5,0,6.3,2.8,6.3,6.3
		c0,3.5-2.8,6.3-6.3,6.3s-6.3-2.8-6.3-6.3c0,0,0,0,0,0C2.3,295.8,5.1,293,8.6,293C8.6,293,8.6,293,8.6,293z"/>
</g>
</svg>
